<svg xmlns="http://www.w3.org/2000/svg" viewBox="0 0 400 600" class="w-full h-full">
  <defs>
    <linearGradient id="skyGradient6" x1="0%" y1="0%" x2="0%" y2="100%">
      <stop offset="0%" style="stop-color:#8B5CF6;stop-opacity:1" />
      <stop offset="100%" style="stop-color:#F3E8FF;stop-opacity:1" />
    </linearGradient>
    <linearGradient id="futureGradient" x1="0%" y1="0%" x2="100%" y2="100%">
      <stop offset="0%" style="stop-color:#1E293B;stop-opacity:1" />
      <stop offset="100%" style="stop-color:#475569;stop-opacity:1" />
    </linearGradient>
    <linearGradient id="neonGlow" x1="0%" y1="0%" x2="100%" y2="100%">
      <stop offset="0%" style="stop-color:#06FFA5;stop-opacity:1" />
      <stop offset="100%" style="stop-color:#00D9FF;stop-opacity:1" />
    </linearGradient>
  </defs>
  
  <!-- Sky background -->
  <rect width="400" height="600" fill="url(#skyGradient6)"/>
  
  <!-- Futuristic city skyline -->
  <!-- Building 1 -->
  <polygon points="50,400 100,350 150,400 150,600 50,600" fill="url(#futureGradient)"/>
  <rect x="70" y="370" width="60" height="4" fill="url(#neonGlow)"/>
  <rect x="70" y="420" width="60" height="2" fill="url(#neonGlow)"/>
  <rect x="70" y="470" width="60" height="2" fill="url(#neonGlow)"/>
  
  <!-- Building 2 (main) -->
  <rect x="160" y="200" width="80" height="400" fill="url(#futureGradient)"/>
  <polygon points="160,200 200,150 240,200" fill="url(#futureGradient)"/>
  
  <!-- Neon strips on main building -->
  <rect x="165" y="220" width="70" height="3" fill="url(#neonGlow)"/>
  <rect x="165" y="280" width="70" height="3" fill="url(#neonGlow)"/>
  <rect x="165" y="340" width="70" height="3" fill="url(#neonGlow)"/>
  <rect x="165" y="400" width="70" height="3" fill="url(#neonGlow)"/>
  <rect x="165" y="460" width="70" height="3" fill="url(#neonGlow)"/>
  <rect x="165" y="520" width="70" height="3" fill="url(#neonGlow)"/>
  
  <!-- Vertical neon lines -->
  <rect x="180" y="200" width="2" height="400" fill="url(#neonGlow)"/>
  <rect x="200" y="200" width="2" height="400" fill="url(#neonGlow)"/>
  <rect x="220" y="200" width="2" height="400" fill="url(#neonGlow)"/>
  
  <!-- Building 3 -->
  <circle cx="300" cy="300" r="50" fill="url(#futureGradient)"/>
  <rect x="275" y="300" width="50" height="300" fill="url(#futureGradient)"/>
  <circle cx="300" cy="300" r="20" fill="none" stroke="url(#neonGlow)" stroke-width="3"/>
  <circle cx="300" cy="300" r="35" fill="none" stroke="url(#neonGlow)" stroke-width="2"/>
  
  <!-- Neon rings on cylindrical building -->
  <ellipse cx="300" cy="350" rx="25" ry="3" fill="url(#neonGlow)"/>
  <ellipse cx="300" cy="400" rx="25" ry="3" fill="url(#neonGlow)"/>
  <ellipse cx="300" cy="450" rx="25" ry="3" fill="url(#neonGlow)"/>
  <ellipse cx="300" cy="500" rx="25" ry="3" fill="url(#neonGlow)"/>
  <ellipse cx="300" cy="550" rx="25" ry="3" fill="url(#neonGlow)"/>
  
  <!-- Building 4 -->
  <polygon points="340,450 380,420 400,450 400,600 340,600" fill="url(#futureGradient)"/>
  <rect x="350" y="440" width="40" height="2" fill="url(#neonGlow)"/>
  <rect x="350" y="490" width="40" height="2" fill="url(#neonGlow)"/>
  <rect x="350" y="540" width="40" height="2" fill="url(#neonGlow)"/>
  
  <!-- Flying vehicles -->
  <ellipse cx="120" cy="250" rx="15" ry="5" fill="url(#neonGlow)" opacity="0.8"/>
  <ellipse cx="280" cy="180" rx="12" ry="4" fill="url(#neonGlow)" opacity="0.7"/>
  <ellipse cx="350" cy="220" rx="10" ry="3" fill="url(#neonGlow)" opacity="0.6"/>
  
  <!-- Energy beams -->
  <line x1="200" y1="150" x2="200" y2="100" stroke="url(#neonGlow)" stroke-width="3" opacity="0.8"/>
  <line x1="300" y1="250" x2="300" y2="200" stroke="url(#neonGlow)" stroke-width="2" opacity="0.7"/>
  
  <!-- Holographic elements -->
  <polygon points="50,100 80,70 110,100 80,130" fill="url(#neonGlow)" opacity="0.3"/>
  <polygon points="320,80 340,60 360,80 340,100" fill="url(#neonGlow)" opacity="0.4"/>
  
  <!-- Ground platform -->
  <rect x="0" y="580" width="400" height="20" fill="#1E293B"/>
  <rect x="0" y="575" width="400" height="5" fill="url(#neonGlow)" opacity="0.5"/>
</svg>
