<svg xmlns="http://www.w3.org/2000/svg" viewBox="0 0 400 600" class="w-full h-full">
  <defs>
    <linearGradient id="skyGradient3" x1="0%" y1="0%" x2="0%" y2="100%">
      <stop offset="0%" style="stop-color:#4338CA;stop-opacity:1" />
      <stop offset="100%" style="stop-color:#E0E7FF;stop-opacity:1" />
    </linearGradient>
    <linearGradient id="glassGradient" x1="0%" y1="0%" x2="100%" y2="100%">
      <stop offset="0%" style="stop-color:#60A5FA;stop-opacity:0.7" />
      <stop offset="100%" style="stop-color:#1E40AF;stop-opacity:0.9" />
    </linearGradient>
    <linearGradient id="frameGradient" x1="0%" y1="0%" x2="100%" y2="100%">
      <stop offset="0%" style="stop-color:#E5E7EB;stop-opacity:1" />
      <stop offset="100%" style="stop-color:#9CA3AF;stop-opacity:1" />
    </linearGradient>
  </defs>
  
  <!-- Sky background -->
  <rect width="400" height="600" fill="url(#skyGradient3)"/>
  
  <!-- Clouds -->
  <ellipse cx="150" cy="70" rx="50" ry="20" fill="white" opacity="0.8"/>
  <ellipse cx="280" cy="90" rx="40" ry="15" fill="white" opacity="0.7"/>
  
  <!-- Main glass building -->
  <rect x="120" y="150" width="160" height="450" fill="url(#glassGradient)"/>
  
  <!-- Building frame -->
  <rect x="115" y="145" width="170" height="460" fill="none" stroke="url(#frameGradient)" stroke-width="8"/>
  
  <!-- Horizontal grid lines -->
  <g stroke="url(#frameGradient)" stroke-width="2" opacity="0.7">
    <line x1="120" y1="200" x2="280" y2="200"/>
    <line x1="120" y1="250" x2="280" y2="250"/>
    <line x1="120" y1="300" x2="280" y2="300"/>
    <line x1="120" y1="350" x2="280" y2="350"/>
    <line x1="120" y1="400" x2="280" y2="400"/>
    <line x1="120" y1="450" x2="280" y2="450"/>
    <line x1="120" y1="500" x2="280" y2="500"/>
    <line x1="120" y1="550" x2="280" y2="550"/>
  </g>
  
  <!-- Vertical grid lines -->
  <g stroke="url(#frameGradient)" stroke-width="2" opacity="0.7">
    <line x1="160" y1="150" x2="160" y2="600"/>
    <line x1="200" y1="150" x2="200" y2="600"/>
    <line x1="240" y1="150" x2="240" y2="600"/>
  </g>
  
  <!-- Reflections -->
  <g fill="white" opacity="0.3">
    <rect x="125" y="160" width="30" height="80" rx="5"/>
    <rect x="165" y="180" width="25" height="60" rx="3"/>
    <rect x="205" y="170" width="35" height="70" rx="5"/>
    <rect x="245" y="190" width="30" height="50" rx="3"/>
  </g>
  
  <!-- Ground -->
  <rect x="0" y="580" width="400" height="20" fill="#374151"/>
  
  <!-- Entrance -->
  <rect x="190" y="570" width="30" height="30" fill="url(#frameGradient)"/>
  
  <!-- Side buildings -->
  <rect x="50" y="400" width="60" height="200" fill="#6B7280" opacity="0.8"/>
  <rect x="290" y="380" width="70" height="220" fill="#6B7280" opacity="0.8"/>
</svg>
