<svg xmlns="http://www.w3.org/2000/svg" viewBox="0 0 400 600" class="w-full h-full">
  <defs>
    <linearGradient id="skyGradient" x1="0%" y1="0%" x2="0%" y2="100%">
      <stop offset="0%" style="stop-color:#87CEEB;stop-opacity:1" />
      <stop offset="100%" style="stop-color:#E0F6FF;stop-opacity:1" />
    </linearGradient>
    <linearGradient id="buildingGradient" x1="0%" y1="0%" x2="100%" y2="100%">
      <stop offset="0%" style="stop-color:#4A5568;stop-opacity:1" />
      <stop offset="100%" style="stop-color:#2D3748;stop-opacity:1" />
    </linearGradient>
    <linearGradient id="windowGlow" x1="0%" y1="0%" x2="100%" y2="100%">
      <stop offset="0%" style="stop-color:#FFF5B7;stop-opacity:1" />
      <stop offset="100%" style="stop-color:#FFEB3B;stop-opacity:0.8" />
    </linearGradient>
  </defs>
  
  <!-- Sky background -->
  <rect width="400" height="600" fill="url(#skyGradient)"/>
  
  <!-- Clouds -->
  <ellipse cx="100" cy="80" rx="40" ry="15" fill="white" opacity="0.7"/>
  <ellipse cx="320" cy="60" rx="35" ry="12" fill="white" opacity="0.6"/>
  
  <!-- Main building -->
  <rect x="150" y="200" width="100" height="400" fill="url(#buildingGradient)"/>
  
  <!-- Building details -->
  <rect x="140" y="190" width="120" height="20" fill="#1A202C"/>
  
  <!-- Windows grid -->
  <g fill="url(#windowGlow)">
    <!-- Floor 1 -->
    <rect x="165" y="220" width="12" height="15" rx="1"/>
    <rect x="185" y="220" width="12" height="15" rx="1"/>
    <rect x="205" y="220" width="12" height="15" rx="1"/>
    <rect x="225" y="220" width="12" height="15" rx="1"/>
    
    <!-- Floor 2 -->
    <rect x="165" y="250" width="12" height="15" rx="1"/>
    <rect x="185" y="250" width="12" height="15" rx="1"/>
    <rect x="205" y="250" width="12" height="15" rx="1"/>
    <rect x="225" y="250" width="12" height="15" rx="1"/>
    
    <!-- Floor 3 -->
    <rect x="165" y="280" width="12" height="15" rx="1"/>
    <rect x="185" y="280" width="12" height="15" rx="1"/>
    <rect x="205" y="280" width="12" height="15" rx="1"/>
    <rect x="225" y="280" width="12" height="15" rx="1"/>
    
    <!-- Floor 4 -->
    <rect x="165" y="310" width="12" height="15" rx="1"/>
    <rect x="185" y="310" width="12" height="15" rx="1"/>
    <rect x="205" y="310" width="12" height="15" rx="1"/>
    <rect x="225" y="310" width="12" height="15" rx="1"/>
    
    <!-- Floor 5 -->
    <rect x="165" y="340" width="12" height="15" rx="1"/>
    <rect x="185" y="340" width="12" height="15" rx="1"/>
    <rect x="205" y="340" width="12" height="15" rx="1"/>
    <rect x="225" y="340" width="12" height="15" rx="1"/>
    
    <!-- Floor 6 -->
    <rect x="165" y="370" width="12" height="15" rx="1"/>
    <rect x="185" y="370" width="12" height="15" rx="1"/>
    <rect x="205" y="370" width="12" height="15" rx="1"/>
    <rect x="225" y="370" width="12" height="15" rx="1"/>
    
    <!-- Floor 7 -->
    <rect x="165" y="400" width="12" height="15" rx="1"/>
    <rect x="185" y="400" width="12" height="15" rx="1"/>
    <rect x="205" y="400" width="12" height="15" rx="1"/>
    <rect x="225" y="400" width="12" height="15" rx="1"/>
    
    <!-- Floor 8 -->
    <rect x="165" y="430" width="12" height="15" rx="1"/>
    <rect x="185" y="430" width="12" height="15" rx="1"/>
    <rect x="205" y="430" width="12" height="15" rx="1"/>
    <rect x="225" y="430" width="12" height="15" rx="1"/>
    
    <!-- Floor 9 -->
    <rect x="165" y="460" width="12" height="15" rx="1"/>
    <rect x="185" y="460" width="12" height="15" rx="1"/>
    <rect x="205" y="460" width="12" height="15" rx="1"/>
    <rect x="225" y="460" width="12" height="15" rx="1"/>
    
    <!-- Floor 10 -->
    <rect x="165" y="490" width="12" height="15" rx="1"/>
    <rect x="185" y="490" width="12" height="15" rx="1"/>
    <rect x="205" y="490" width="12" height="15" rx="1"/>
    <rect x="225" y="490" width="12" height="15" rx="1"/>
    
    <!-- Floor 11 -->
    <rect x="165" y="520" width="12" height="15" rx="1"/>
    <rect x="185" y="520" width="12" height="15" rx="1"/>
    <rect x="205" y="520" width="12" height="15" rx="1"/>
    <rect x="225" y="520" width="12" height="15" rx="1"/>
    
    <!-- Floor 12 -->
    <rect x="165" y="550" width="12" height="15" rx="1"/>
    <rect x="185" y="550" width="12" height="15" rx="1"/>
    <rect x="205" y="550" width="12" height="15" rx="1"/>
    <rect x="225" y="550" width="12" height="15" rx="1"/>
  </g>
  
  <!-- Building shadow -->
  <rect x="250" y="400" width="20" height="200" fill="black" opacity="0.2"/>
</svg>
